<svg width="30" height="30" viewBox="0 0 30 30" fill="none" xmlns="http://www.w3.org/2000/svg">
<g clip-path="url(#clip0_363_5774)">
<g filter="url(#filter0_d_363_5774)">
<mask id="path-2-outside-1_363_5774" maskUnits="userSpaceOnUse" x="2.66699" y="1.66699" width="26" height="26" fill="black">
<rect fill="white" x="2.66699" y="1.66699" width="26" height="26"/>
<path d="M4.41504 3.83301C4.41504 3.83301 4.67025 3.82389 5.18066 3.80566C5.69108 3.77832 6.361 3.74642 7.19043 3.70996C8.01986 3.6735 8.9222 3.6416 9.89746 3.61426C10.8727 3.5778 11.8343 3.55046 12.7822 3.53223C13.7301 3.50488 14.5641 3.49121 15.2842 3.49121C17.9912 3.49121 20.1286 3.70085 21.6963 4.12012C23.2731 4.53027 24.3988 5.11816 25.0732 5.88379C25.7477 6.6403 26.085 7.54264 26.085 8.59082C26.085 9.59342 25.8206 10.4365 25.292 11.1201C24.7725 11.7946 23.9749 12.3779 22.8994 12.8701C23.6559 13.1253 24.3805 13.4899 25.0732 13.9639C25.766 14.4378 26.3356 15.0986 26.7822 15.9463C27.2288 16.7848 27.4521 17.8968 27.4521 19.2822C27.4521 20.5583 27.1878 21.611 26.6592 22.4404C26.1396 23.2699 25.4424 23.9261 24.5674 24.4092C23.6924 24.8831 22.7171 25.234 21.6416 25.4619C20.5661 25.6807 19.4723 25.8219 18.3604 25.8857C17.2484 25.9495 16.2002 25.9814 15.2158 25.9814C14.8968 25.9814 14.3727 25.9723 13.6436 25.9541C12.9235 25.9359 12.1032 25.9131 11.1826 25.8857C10.2712 25.8584 9.3597 25.8265 8.44824 25.79C7.53678 25.7536 6.71647 25.7171 5.9873 25.6807C5.26725 25.6533 4.74316 25.6305 4.41504 25.6123V3.83301ZM12.96 13.8271C13.7347 13.5264 14.4775 13.2074 15.1885 12.8701C15.9085 12.5238 16.4964 12.1273 16.9521 11.6807C17.4079 11.234 17.6357 10.7054 17.6357 10.0947C17.6357 9.69368 17.4808 9.39746 17.1709 9.20605C16.8701 9.01465 16.5648 8.91895 16.2549 8.91895C15.945 8.91895 15.6032 8.9873 15.2295 9.12402C14.8558 9.25163 14.5003 9.40202 14.1631 9.5752C13.8258 9.74837 13.5433 9.90332 13.3154 10.04C13.0967 10.1768 12.9782 10.2542 12.96 10.2725V13.8271ZM18.3604 17.1768C18.3604 16.7575 18.2282 16.4613 17.9639 16.2881C17.7087 16.1149 17.3896 16.0283 17.0068 16.0283C16.5967 16.0283 16.1364 16.1331 15.626 16.3428C15.1156 16.5524 14.6234 16.7894 14.1494 17.0537C13.6755 17.318 13.279 17.5277 12.96 17.6826V21.1279L13.6709 20.8545C14.6188 20.499 15.4437 20.1663 16.1455 19.8564C16.8473 19.5374 17.3896 19.1729 17.7725 18.7627C18.1644 18.3434 18.3604 17.8148 18.3604 17.1768Z"/>
</mask>
<path d="M4.41504 3.83301C4.41504 3.83301 4.67025 3.82389 5.18066 3.80566C5.69108 3.77832 6.361 3.74642 7.19043 3.70996C8.01986 3.6735 8.9222 3.6416 9.89746 3.61426C10.8727 3.5778 11.8343 3.55046 12.7822 3.53223C13.7301 3.50488 14.5641 3.49121 15.2842 3.49121C17.9912 3.49121 20.1286 3.70085 21.6963 4.12012C23.2731 4.53027 24.3988 5.11816 25.0732 5.88379C25.7477 6.6403 26.085 7.54264 26.085 8.59082C26.085 9.59342 25.8206 10.4365 25.292 11.1201C24.7725 11.7946 23.9749 12.3779 22.8994 12.8701C23.6559 13.1253 24.3805 13.4899 25.0732 13.9639C25.766 14.4378 26.3356 15.0986 26.7822 15.9463C27.2288 16.7848 27.4521 17.8968 27.4521 19.2822C27.4521 20.5583 27.1878 21.611 26.6592 22.4404C26.1396 23.2699 25.4424 23.9261 24.5674 24.4092C23.6924 24.8831 22.7171 25.234 21.6416 25.4619C20.5661 25.6807 19.4723 25.8219 18.3604 25.8857C17.2484 25.9495 16.2002 25.9814 15.2158 25.9814C14.8968 25.9814 14.3727 25.9723 13.6436 25.9541C12.9235 25.9359 12.1032 25.9131 11.1826 25.8857C10.2712 25.8584 9.3597 25.8265 8.44824 25.79C7.53678 25.7536 6.71647 25.7171 5.9873 25.6807C5.26725 25.6533 4.74316 25.6305 4.41504 25.6123V3.83301ZM12.96 13.8271C13.7347 13.5264 14.4775 13.2074 15.1885 12.8701C15.9085 12.5238 16.4964 12.1273 16.9521 11.6807C17.4079 11.234 17.6357 10.7054 17.6357 10.0947C17.6357 9.69368 17.4808 9.39746 17.1709 9.20605C16.8701 9.01465 16.5648 8.91895 16.2549 8.91895C15.945 8.91895 15.6032 8.9873 15.2295 9.12402C14.8558 9.25163 14.5003 9.40202 14.1631 9.5752C13.8258 9.74837 13.5433 9.90332 13.3154 10.04C13.0967 10.1768 12.9782 10.2542 12.96 10.2725V13.8271ZM18.3604 17.1768C18.3604 16.7575 18.2282 16.4613 17.9639 16.2881C17.7087 16.1149 17.3896 16.0283 17.0068 16.0283C16.5967 16.0283 16.1364 16.1331 15.626 16.3428C15.1156 16.5524 14.6234 16.7894 14.1494 17.0537C13.6755 17.318 13.279 17.5277 12.96 17.6826V21.1279L13.6709 20.8545C14.6188 20.499 15.4437 20.1663 16.1455 19.8564C16.8473 19.5374 17.3896 19.1729 17.7725 18.7627C18.1644 18.3434 18.3604 17.8148 18.3604 17.1768Z" fill="#F290B3"/>
<path d="M4.41504 3.83301L4.38494 2.99029L3.57179 3.01933V3.83301H4.41504ZM5.18066 3.80566L5.21076 4.64838L5.21827 4.64811L5.22577 4.64771L5.18066 3.80566ZM9.89746 3.61426L9.9211 4.45722L9.92896 4.45692L9.89746 3.61426ZM12.7822 3.53223L12.7984 4.37536L12.8065 4.37513L12.7822 3.53223ZM21.6963 4.12012L21.4784 4.93476L21.484 4.93621L21.6963 4.12012ZM25.0732 5.88379L24.4405 6.44122L24.4438 6.44496L25.0732 5.88379ZM25.292 11.1201L24.6249 10.6043L24.6239 10.6055L25.292 11.1201ZM22.8994 12.8701L22.5485 12.1033L20.6134 12.9889L22.6299 13.6691L22.8994 12.8701ZM26.7822 15.9463L26.0362 16.3394L26.038 16.3427L26.7822 15.9463ZM26.6592 22.4404L25.9481 21.9872L25.9445 21.9928L26.6592 22.4404ZM24.5674 24.4092L24.969 25.1507L24.9749 25.1474L24.5674 24.4092ZM21.6416 25.4619L21.8097 26.2883L21.8164 26.2869L21.6416 25.4619ZM13.6436 25.9541L13.6222 26.7971L13.6225 26.7971L13.6436 25.9541ZM11.1826 25.8857L11.1573 26.7286L11.1576 26.7286L11.1826 25.8857ZM5.9873 25.6807L6.02942 24.8384L6.0193 24.838L5.9873 25.6807ZM4.41504 25.6123H3.57179V26.41L4.36826 26.4543L4.41504 25.6123ZM12.96 13.8271H12.1167V15.0591L13.2651 14.6132L12.96 13.8271ZM15.1885 12.8701L15.5499 13.632L15.554 13.63L15.1885 12.8701ZM16.9521 11.6807L17.5424 12.2829L16.9521 11.6807ZM17.1709 9.20605L16.7181 9.91754L16.7278 9.92349L17.1709 9.20605ZM15.2295 9.12402L15.502 9.92204L15.5106 9.91908L15.5192 9.91594L15.2295 9.12402ZM14.1631 9.5752L14.5483 10.3253L14.1631 9.5752ZM13.3154 10.04L12.8816 9.31695L12.875 9.3209L12.8685 9.32496L13.3154 10.04ZM12.96 10.2725L12.3637 9.67619L12.1167 9.92317V10.2725H12.96ZM17.9639 16.2881L17.4903 16.9859L17.5017 16.9934L17.9639 16.2881ZM12.96 17.6826L12.5915 16.9241L12.1167 17.1547V17.6826H12.96ZM12.96 21.1279H12.1167V22.3557L13.2627 21.915L12.96 21.1279ZM13.6709 20.8545L13.3748 20.0649L13.3682 20.0674L13.6709 20.8545ZM16.1455 19.8564L16.4861 20.6279L16.4944 20.6241L16.1455 19.8564ZM17.7725 18.7627L17.1564 18.1869L17.156 18.1873L17.7725 18.7627ZM4.41504 3.83301C4.44514 4.67572 4.44514 4.67572 4.44514 4.67572C4.44514 4.67572 4.44514 4.67572 4.44515 4.67572C4.44515 4.67572 4.44516 4.67572 4.44516 4.67572C4.44517 4.67572 4.44518 4.67572 4.44518 4.67572C4.44522 4.67572 4.4452 4.67572 4.44524 4.67572C4.44525 4.67572 4.44527 4.67572 4.44528 4.67572C4.44529 4.67572 4.44531 4.67572 4.44532 4.67572C4.44542 4.67571 4.44543 4.67571 4.44556 4.67571C4.44558 4.67571 4.4456 4.67571 4.44563 4.67571C4.44565 4.67571 4.44568 4.6757 4.44571 4.6757C4.44574 4.6757 4.44576 4.6757 4.44579 4.6757C4.44582 4.6757 4.44585 4.6757 4.44588 4.6757C4.44607 4.67569 4.44589 4.6757 4.44608 4.67569C4.44612 4.67569 4.44615 4.67569 4.44619 4.67569C4.44623 4.67569 4.44627 4.67568 4.4463 4.67568C4.44641 4.67568 4.44668 4.67567 4.44682 4.67566C4.44744 4.67564 4.44738 4.67564 4.44813 4.67562C4.44819 4.67562 4.44825 4.67561 4.44832 4.67561C4.44838 4.67561 4.44845 4.67561 4.44851 4.6756C4.44881 4.67559 4.44862 4.6756 4.44892 4.67559C4.44899 4.67559 4.44906 4.67558 4.44913 4.67558C4.44921 4.67558 4.44928 4.67558 4.44935 4.67557C4.44943 4.67557 4.4495 4.67557 4.44958 4.67557C4.44965 4.67556 4.44973 4.67556 4.44981 4.67556C4.45 4.67555 4.45009 4.67555 4.45029 4.67554C4.45037 4.67554 4.45045 4.67553 4.45054 4.67553C4.45062 4.67553 4.4507 4.67553 4.45079 4.67552C4.45088 4.67552 4.45096 4.67552 4.45105 4.67551C4.45114 4.67551 4.45123 4.67551 4.45132 4.6755C4.4516 4.67549 4.45157 4.67549 4.45187 4.67548C4.45211 4.67548 4.45635 4.67532 4.4571 4.6753C4.45745 4.67528 4.4697 4.67485 4.47205 4.67476C4.47264 4.67474 4.48068 4.67445 4.48177 4.67442C4.48544 4.67428 4.4834 4.67436 4.48719 4.67422C4.49004 4.67412 4.49002 4.67412 4.49299 4.67402C4.49615 4.6739 4.50203 4.67369 4.5057 4.67356C4.51113 4.67337 4.50706 4.67351 4.51261 4.67331C4.51334 4.67329 4.51545 4.67321 4.51621 4.67319C4.51742 4.67314 4.51683 4.67316 4.51805 4.67312C4.51835 4.67311 4.51866 4.6731 4.51897 4.67309C4.51928 4.67308 4.51959 4.67307 4.5199 4.67305C4.53835 4.6724 4.53236 4.67261 4.5528 4.67188C4.60941 4.66986 4.57195 4.6712 4.63654 4.66889C4.6406 4.66874 4.64451 4.6686 4.64869 4.66845C4.65588 4.6682 4.6539 4.66827 4.66122 4.66801C4.67002 4.66769 4.67808 4.6674 4.68738 4.66707C4.74368 4.66506 4.68592 4.66713 4.74421 4.66504C4.76404 4.66434 4.75454 4.66467 4.77486 4.66395C4.77914 4.6638 4.80224 4.66297 4.80701 4.6628C4.82261 4.66224 4.85821 4.66097 4.8758 4.66034C4.91597 4.65891 4.90841 4.65918 4.95057 4.65767C4.95863 4.65739 4.98163 4.65656 4.9902 4.65626C5.0124 4.65547 5.00861 4.6556 5.03132 4.65479C5.03529 4.65465 5.11208 4.6519 5.11805 4.65169C5.18213 4.6494 5.14469 4.65074 5.21076 4.64838L5.15057 2.96295C5.08591 2.96526 4.84836 2.97374 4.81561 2.97491C4.712 2.97861 4.64805 2.98089 4.57635 2.98346C4.48362 2.98677 4.49362 2.98641 4.43279 2.98858C4.39846 2.98981 4.42326 2.98892 4.3969 2.98986C4.39305 2.99 4.3898 2.99012 4.38793 2.99018C4.3864 2.99024 4.38672 2.99023 4.38569 2.99026C4.3854 2.99027 4.38529 2.99028 4.38513 2.99028C4.38507 2.99029 4.38502 2.99029 4.38499 2.99029C4.38497 2.99029 4.38497 2.99029 4.38495 2.99029C4.38495 2.99029 4.38495 2.99029 4.38494 2.99029C4.38494 2.99029 4.38494 2.99029 4.41504 3.83301ZM5.22577 4.64771C5.73237 4.62057 6.39929 4.5888 7.22746 4.5524L7.1534 2.86752C6.32271 2.90403 5.64979 2.93607 5.13555 2.96362L5.22577 4.64771ZM7.22746 4.5524C8.05173 4.51617 8.94955 4.48442 9.92109 4.45718L9.87383 2.77134C8.89485 2.79878 7.98798 2.83084 7.1534 2.86752L7.22746 4.5524ZM9.92896 4.45692C10.8993 4.42065 11.8558 4.39345 12.7984 4.37532L12.766 2.68913C11.8129 2.70746 10.8462 2.73495 9.86596 2.77159L9.92896 4.45692ZM12.8065 4.37513C13.7487 4.34795 14.5743 4.33446 15.2842 4.33446V2.64796C14.554 2.64796 13.7116 2.66181 12.7579 2.68932L12.8065 4.37513ZM15.2842 4.33446C17.9596 4.33446 20.0133 4.5429 21.4784 4.93474L21.9142 3.30549C20.2439 2.85879 18.0228 2.64796 15.2842 2.64796V4.33446ZM21.484 4.93621C22.987 5.32718 23.9255 5.85663 24.4405 6.44121L25.706 5.32637C24.872 4.37969 23.5592 3.73337 21.9086 3.30402L21.484 4.93621ZM24.4438 6.44496C24.9755 7.04129 25.2417 7.74183 25.2417 8.59082H26.9282C26.9282 7.34346 26.52 6.23931 25.7027 5.32262L24.4438 6.44496ZM25.2417 8.59082C25.2417 9.43791 25.0216 10.0913 24.6249 10.6043L25.9591 11.636C26.6196 10.7818 26.9282 9.74894 26.9282 8.59082H25.2417ZM24.6239 10.6055C24.2142 11.1375 23.5453 11.6472 22.5485 12.1033L23.2503 13.6369C24.4046 13.1087 25.3307 12.4517 25.96 11.6347L24.6239 10.6055ZM22.6299 13.6691C23.3094 13.8984 23.9649 14.2273 24.5971 14.6598L25.5494 13.2679C24.7962 12.7525 24.0024 12.3523 23.169 12.0711L22.6299 13.6691ZM24.5971 14.6598C25.1614 15.0459 25.6444 15.5958 26.0362 16.3394L27.5283 15.5532C27.0268 14.6015 26.3705 13.8297 25.5494 13.2679L24.5971 14.6598ZM26.038 16.3427C26.3966 17.0161 26.6089 17.9762 26.6089 19.2822H28.2954C28.2954 17.8175 28.0611 16.5536 27.5265 15.5499L26.038 16.3427ZM26.6089 19.2822C26.6089 20.4447 26.3682 21.328 25.9481 21.9872L27.3703 22.8937C28.0074 21.894 28.2954 20.6718 28.2954 19.2822H26.6089ZM25.9445 21.9928C25.5027 22.6982 24.9122 23.2556 24.1598 23.671L24.9749 25.1474C25.9725 24.5966 26.7766 23.8415 27.3738 22.8881L25.9445 21.9928ZM24.1658 23.6677C23.369 24.0993 22.4713 24.4242 21.4668 24.637L21.8164 26.2869C22.9629 26.0439 24.0158 25.667 24.969 25.1506L24.1658 23.6677ZM21.4735 24.6356C20.4381 24.8462 19.3844 24.9823 18.312 25.0439L18.4087 26.7276C19.5603 26.6615 20.6941 26.5152 21.8097 26.2882L21.4735 24.6356ZM18.312 25.0439C17.2141 25.1069 16.1822 25.1382 15.2158 25.1382V26.8247C16.2182 26.8247 17.2826 26.7922 18.4087 26.7276L18.312 25.0439ZM15.2158 25.1382C14.9083 25.1382 14.3933 25.1293 13.6646 25.1111L13.6225 26.7971C14.3521 26.8153 14.8854 26.8247 15.2158 26.8247V25.1382ZM13.6649 25.1111C12.9464 25.0929 12.1273 25.0702 11.2077 25.0429L11.1576 26.7286C12.0791 26.756 12.9006 26.7788 13.6222 26.7971L13.6649 25.1111ZM11.2079 25.0429C10.2993 25.0156 9.3906 24.9838 8.48195 24.9475L8.41454 26.6326C9.3288 26.6692 10.2431 26.7012 11.1573 26.7286L11.2079 25.0429ZM8.48195 24.9475C7.57263 24.9111 6.75519 24.8748 6.02941 24.8385L5.94519 26.5229C6.67775 26.5595 7.50093 26.5961 8.41454 26.6326L8.48195 24.9475ZM6.0193 24.838C5.29981 24.8107 4.78202 24.7881 4.46181 24.7703L4.36826 26.4543C4.7043 26.4729 5.2347 26.4959 5.95531 26.5233L6.0193 24.838ZM5.25829 25.6123V3.83301H3.57179V25.6123H5.25829ZM13.2651 14.6132C14.0579 14.3055 14.8195 13.9785 15.5499 13.632L14.8271 12.1082C14.1356 12.4363 13.4115 12.7473 12.6548 13.0411L13.2651 14.6132ZM15.554 13.63C16.337 13.2534 17.0067 12.8079 17.5424 12.2829L16.3619 11.0784C15.9862 11.4466 15.48 11.7941 14.8229 12.1102L15.554 13.63ZM17.5424 12.2829C18.1518 11.6857 18.479 10.9431 18.479 10.0947H16.7925C16.7925 10.4677 16.6639 10.7824 16.3619 11.0784L17.5424 12.2829ZM18.479 10.0947C18.479 9.43669 18.2013 8.85134 17.614 8.48862L16.7278 9.92349C16.7489 9.93653 16.7594 9.94635 16.7639 9.9511C16.7681 9.95553 16.7703 9.95884 16.7723 9.96262C16.7753 9.96828 16.7925 10.0033 16.7925 10.0947H18.479ZM17.6236 8.49463C17.2084 8.23038 16.7482 8.07569 16.2549 8.07569V9.7622C16.3814 9.7622 16.5319 9.79892 16.7182 9.91748L17.6236 8.49463ZM16.2549 8.07569C15.8226 8.07569 15.3812 8.17061 14.9398 8.3321L15.5192 9.91594C15.8252 9.804 16.0674 9.7622 16.2549 9.7622V8.07569ZM14.957 8.32601C14.5462 8.46628 14.153 8.63246 13.7779 8.82506L14.5483 10.3253C14.8477 10.1716 15.1654 10.037 15.502 9.92204L14.957 8.32601ZM13.7779 8.82506C13.4305 9.00347 13.1305 9.16762 12.8816 9.31695L13.7493 10.7631C13.9561 10.639 14.2212 10.4933 14.5483 10.3253L13.7779 8.82506ZM12.8685 9.32496C12.7575 9.39433 12.6675 9.45145 12.601 9.49491C12.5683 9.5163 12.5365 9.5375 12.5089 9.55686C12.5055 9.55922 12.4301 9.60976 12.3637 9.67619L13.5562 10.8687C13.5324 10.8926 13.5126 10.9093 13.5044 10.9162C13.4944 10.9244 13.4868 10.9303 13.4831 10.9332C13.4758 10.9387 13.4725 10.9409 13.476 10.9385C13.4825 10.9339 13.4974 10.9238 13.524 10.9065C13.576 10.8724 13.6546 10.8225 13.7624 10.7551L12.8685 9.32496ZM12.1167 10.2725V13.8271H13.8032V10.2725H12.1167ZM19.2036 17.1768C19.2036 16.5766 19.0034 15.961 18.426 15.5827L17.5017 16.9934C17.5021 16.9936 17.501 16.993 17.4991 16.9913C17.4972 16.9896 17.4951 16.9875 17.4931 16.9852C17.4887 16.98 17.4886 16.9781 17.4911 16.9837C17.4971 16.997 17.5171 17.0523 17.5171 17.1768H19.2036ZM18.4374 15.5903C18.012 15.3017 17.5175 15.1851 17.0068 15.1851V16.8716C17.2618 16.8716 17.4053 16.9281 17.4904 16.9859L18.4374 15.5903ZM17.0068 15.1851C16.456 15.1851 15.8846 15.3249 15.3056 15.5627L15.9463 17.1228C16.3882 16.9413 16.7374 16.8716 17.0068 16.8716V15.1851ZM15.3056 15.5627C14.7648 15.7849 14.2424 16.0363 13.7387 16.3172L14.5601 17.7902C15.0044 17.5424 15.4664 17.3199 15.9463 17.1228L15.3056 15.5627ZM13.7387 16.3172C13.2722 16.5774 12.8909 16.7787 12.5915 16.9241L13.3284 18.4411C13.6671 18.2766 14.0787 18.0587 14.5601 17.7902L13.7387 16.3172ZM12.1167 17.6826V21.1279H13.8032V17.6826H12.1167ZM13.2627 21.915L13.9736 21.6415L13.3682 20.0674L12.6573 20.3409L13.2627 21.915ZM13.967 21.6441C14.9255 21.2846 15.7659 20.9459 16.4861 20.6278L15.8049 19.085C15.1215 19.3868 14.3121 19.7134 13.3748 20.0649L13.967 21.6441ZM16.4944 20.6241C17.2619 20.2753 17.9078 19.8535 18.3889 19.3381L17.156 18.1873C16.8715 18.4922 16.4328 18.7996 15.7966 19.0888L16.4944 20.6241ZM18.3885 19.3385C18.9432 18.7451 19.2036 18.0027 19.2036 17.1768H17.5171C17.5171 17.6268 17.3856 17.9417 17.1564 18.1869L18.3885 19.3385Z" fill="#212121" mask="url(#path-2-outside-1_363_5774)"/>
</g>
</g>
<defs>
<filter id="filter0_d_363_5774" x="1.60419" y="0.680364" width="28.6588" height="28.1119" filterUnits="userSpaceOnUse" color-interpolation-filters="sRGB">
<feFlood flood-opacity="0" result="BackgroundImageFix"/>
<feColorMatrix in="SourceAlpha" type="matrix" values="0 0 0 0 0 0 0 0 0 0 0 0 0 0 0 0 0 0 127 0" result="hardAlpha"/>
<feOffset/>
<feGaussianBlur stdDeviation="1.40542"/>
<feComposite in2="hardAlpha" operator="out"/>
<feColorMatrix type="matrix" values="0 0 0 0 0.827361 0 0 0 0 0.0359721 0 0 0 0 0.273389 0 0 0 0.25 0"/>
<feBlend mode="normal" in2="BackgroundImageFix" result="effect1_dropShadow_363_5774"/>
<feBlend mode="normal" in="SourceGraphic" in2="effect1_dropShadow_363_5774" result="shape"/>
</filter>
<clipPath id="clip0_363_5774">
<rect width="30" height="30" rx="7.55556" fill="white"/>
</clipPath>
</defs>
</svg>
